<mxfile host="app.diagrams.net" modified="2022-09-14T05:53:12.604Z" agent="5.0 (Windows NT 10.0; Win64; x64) AppleWebKit/537.36 (KHTML, like Gecko) Chrome/105.0.0.0 Safari/537.36" etag="ZyQb3v0sN92Ms5jBEJCt" version="19.0.0" type="github">
  <diagram id="p_i1zrt6Kj4XcRnkrQhn" name="Page-1">
    <mxGraphModel dx="1959" dy="834" grid="1" gridSize="10" guides="1" tooltips="1" connect="1" arrows="1" fold="1" page="1" pageScale="1" pageWidth="827" pageHeight="1169" math="0" shadow="0">
      <root>
        <mxCell id="0" />
        <mxCell id="1" parent="0" />
        <mxCell id="O2MHETSp67tyu0d_eCPM-3" style="rounded=0;orthogonalLoop=1;jettySize=auto;html=1;exitX=1;exitY=0.5;exitDx=0;exitDy=0;entryX=0;entryY=0.5;entryDx=0;entryDy=0;fontSize=14;" edge="1" parent="1" source="O2MHETSp67tyu0d_eCPM-1" target="O2MHETSp67tyu0d_eCPM-2">
          <mxGeometry relative="1" as="geometry" />
        </mxCell>
        <mxCell id="O2MHETSp67tyu0d_eCPM-9" style="edgeStyle=none;rounded=0;orthogonalLoop=1;jettySize=auto;html=1;exitX=1;exitY=0.5;exitDx=0;exitDy=0;entryX=0;entryY=0.5;entryDx=0;entryDy=0;fontSize=14;" edge="1" parent="1" source="O2MHETSp67tyu0d_eCPM-1" target="O2MHETSp67tyu0d_eCPM-8">
          <mxGeometry relative="1" as="geometry" />
        </mxCell>
        <mxCell id="O2MHETSp67tyu0d_eCPM-1" value="&lt;font style=&quot;font-size: 14px;&quot;&gt;x = 0&lt;/font&gt;" style="ellipse;whiteSpace=wrap;html=1;" vertex="1" parent="1">
          <mxGeometry x="120" y="170" width="60" height="50" as="geometry" />
        </mxCell>
        <mxCell id="O2MHETSp67tyu0d_eCPM-5" style="edgeStyle=none;rounded=0;orthogonalLoop=1;jettySize=auto;html=1;exitX=1;exitY=0.5;exitDx=0;exitDy=0;entryX=0;entryY=0.5;entryDx=0;entryDy=0;fontSize=14;" edge="1" parent="1" source="O2MHETSp67tyu0d_eCPM-2" target="O2MHETSp67tyu0d_eCPM-4">
          <mxGeometry relative="1" as="geometry" />
        </mxCell>
        <mxCell id="O2MHETSp67tyu0d_eCPM-2" value="&lt;font style=&quot;font-size: 14px;&quot;&gt;read x = 2&lt;/font&gt;" style="ellipse;whiteSpace=wrap;html=1;" vertex="1" parent="1">
          <mxGeometry x="220" y="110" width="80" height="50" as="geometry" />
        </mxCell>
        <mxCell id="O2MHETSp67tyu0d_eCPM-6" style="edgeStyle=none;rounded=0;orthogonalLoop=1;jettySize=auto;html=1;exitX=1;exitY=0.5;exitDx=0;exitDy=0;fontSize=14;entryX=0;entryY=0.5;entryDx=0;entryDy=0;" edge="1" parent="1" source="O2MHETSp67tyu0d_eCPM-4" target="O2MHETSp67tyu0d_eCPM-7">
          <mxGeometry relative="1" as="geometry">
            <mxPoint x="470" y="135" as="targetPoint" />
          </mxGeometry>
        </mxCell>
        <mxCell id="O2MHETSp67tyu0d_eCPM-4" value="&lt;font style=&quot;font-size: 14px;&quot;&gt;write r1 = 2&lt;/font&gt;" style="ellipse;whiteSpace=wrap;html=1;" vertex="1" parent="1">
          <mxGeometry x="320" y="110" width="80" height="50" as="geometry" />
        </mxCell>
        <mxCell id="O2MHETSp67tyu0d_eCPM-7" value="&lt;font style=&quot;font-size: 14px;&quot;&gt;write x = 1&lt;/font&gt;" style="ellipse;whiteSpace=wrap;html=1;" vertex="1" parent="1">
          <mxGeometry x="470" y="110" width="80" height="50" as="geometry" />
        </mxCell>
        <mxCell id="O2MHETSp67tyu0d_eCPM-11" style="edgeStyle=none;rounded=0;orthogonalLoop=1;jettySize=auto;html=1;exitX=1;exitY=0.5;exitDx=0;exitDy=0;entryX=0;entryY=0.5;entryDx=0;entryDy=0;fontSize=14;" edge="1" parent="1" source="O2MHETSp67tyu0d_eCPM-8" target="O2MHETSp67tyu0d_eCPM-10">
          <mxGeometry relative="1" as="geometry" />
        </mxCell>
        <mxCell id="O2MHETSp67tyu0d_eCPM-8" value="&lt;font style=&quot;font-size: 14px;&quot;&gt;read x = 1&lt;/font&gt;" style="ellipse;whiteSpace=wrap;html=1;" vertex="1" parent="1">
          <mxGeometry x="220" y="220" width="80" height="50" as="geometry" />
        </mxCell>
        <mxCell id="O2MHETSp67tyu0d_eCPM-13" style="edgeStyle=none;rounded=0;orthogonalLoop=1;jettySize=auto;html=1;exitX=1;exitY=0.5;exitDx=0;exitDy=0;entryX=0;entryY=0.5;entryDx=0;entryDy=0;fontSize=14;" edge="1" parent="1" source="O2MHETSp67tyu0d_eCPM-10" target="O2MHETSp67tyu0d_eCPM-12">
          <mxGeometry relative="1" as="geometry" />
        </mxCell>
        <mxCell id="O2MHETSp67tyu0d_eCPM-10" value="&lt;font style=&quot;font-size: 14px;&quot;&gt;write r2 = 1&lt;/font&gt;" style="ellipse;whiteSpace=wrap;html=1;" vertex="1" parent="1">
          <mxGeometry x="320" y="220" width="80" height="50" as="geometry" />
        </mxCell>
        <mxCell id="O2MHETSp67tyu0d_eCPM-12" value="&lt;font style=&quot;font-size: 14px;&quot;&gt;write x = 2&lt;/font&gt;" style="ellipse;whiteSpace=wrap;html=1;" vertex="1" parent="1">
          <mxGeometry x="470" y="220" width="80" height="50" as="geometry" />
        </mxCell>
        <mxCell id="O2MHETSp67tyu0d_eCPM-14" value="" style="endArrow=classic;html=1;rounded=0;fontSize=14;" edge="1" parent="1">
          <mxGeometry width="50" height="50" relative="1" as="geometry">
            <mxPoint x="110" y="40" as="sourcePoint" />
            <mxPoint x="150" y="40" as="targetPoint" />
          </mxGeometry>
        </mxCell>
        <mxCell id="O2MHETSp67tyu0d_eCPM-15" value="po" style="text;html=1;strokeColor=none;fillColor=none;align=center;verticalAlign=middle;whiteSpace=wrap;rounded=0;fontSize=14;" vertex="1" parent="1">
          <mxGeometry x="150" y="30" width="30" height="20" as="geometry" />
        </mxCell>
        <mxCell id="O2MHETSp67tyu0d_eCPM-21" value="" style="fontSize=12;html=1;endFill=0;startFill=0;endSize=6;startSize=6;dashed=1;dashPattern=1 4;endArrow=openThin;startArrow=none;rounded=0;exitX=0;exitY=0;exitDx=0;exitDy=0;entryX=0.723;entryY=1.004;entryDx=0;entryDy=0;entryPerimeter=0;" edge="1" parent="1" source="O2MHETSp67tyu0d_eCPM-12" target="O2MHETSp67tyu0d_eCPM-2">
          <mxGeometry width="160" relative="1" as="geometry">
            <mxPoint x="340" y="370" as="sourcePoint" />
            <mxPoint x="500" y="370" as="targetPoint" />
          </mxGeometry>
        </mxCell>
        <mxCell id="O2MHETSp67tyu0d_eCPM-23" value="" style="fontSize=12;html=1;endFill=0;startFill=0;endSize=6;startSize=6;dashed=1;dashPattern=1 4;endArrow=openThin;startArrow=none;rounded=0;exitX=0;exitY=1;exitDx=0;exitDy=0;entryX=0.75;entryY=0;entryDx=0;entryDy=0;entryPerimeter=0;strokeColor=#FF0000;" edge="1" parent="1" source="O2MHETSp67tyu0d_eCPM-7" target="O2MHETSp67tyu0d_eCPM-8">
          <mxGeometry width="160" relative="1" as="geometry">
            <mxPoint x="491.7157287525381" y="237.32233047033628" as="sourcePoint" />
            <mxPoint x="287.8399999999999" y="170.20000000000005" as="targetPoint" />
          </mxGeometry>
        </mxCell>
        <mxCell id="O2MHETSp67tyu0d_eCPM-24" value="" style="fontSize=12;html=1;endFill=0;startFill=0;endSize=6;startSize=6;dashed=1;dashPattern=1 4;endArrow=openThin;startArrow=none;rounded=0;" edge="1" parent="1">
          <mxGeometry width="160" relative="1" as="geometry">
            <mxPoint x="110" y="60" as="sourcePoint" />
            <mxPoint x="150" y="60" as="targetPoint" />
          </mxGeometry>
        </mxCell>
        <mxCell id="O2MHETSp67tyu0d_eCPM-25" value="read from" style="text;html=1;strokeColor=none;fillColor=none;align=center;verticalAlign=middle;whiteSpace=wrap;rounded=0;fontSize=14;" vertex="1" parent="1">
          <mxGeometry x="150" y="50" width="70" height="20" as="geometry" />
        </mxCell>
        <mxCell id="O2MHETSp67tyu0d_eCPM-26" value="" style="endArrow=classic;html=1;rounded=0;fontSize=14;" edge="1" parent="1">
          <mxGeometry width="50" height="50" relative="1" as="geometry">
            <mxPoint x="120" y="350" as="sourcePoint" />
            <mxPoint x="160" y="350" as="targetPoint" />
          </mxGeometry>
        </mxCell>
        <mxCell id="O2MHETSp67tyu0d_eCPM-27" value="po" style="text;html=1;strokeColor=none;fillColor=none;align=center;verticalAlign=middle;whiteSpace=wrap;rounded=0;fontSize=14;" vertex="1" parent="1">
          <mxGeometry x="160" y="340" width="30" height="20" as="geometry" />
        </mxCell>
        <mxCell id="O2MHETSp67tyu0d_eCPM-28" value="" style="fontSize=12;html=1;endFill=0;startFill=0;endSize=6;startSize=6;dashed=1;dashPattern=1 4;endArrow=openThin;startArrow=none;rounded=0;" edge="1" parent="1">
          <mxGeometry width="160" relative="1" as="geometry">
            <mxPoint x="120" y="370" as="sourcePoint" />
            <mxPoint x="160" y="370" as="targetPoint" />
          </mxGeometry>
        </mxCell>
        <mxCell id="O2MHETSp67tyu0d_eCPM-29" value="read from" style="text;html=1;strokeColor=none;fillColor=none;align=center;verticalAlign=middle;whiteSpace=wrap;rounded=0;fontSize=14;" vertex="1" parent="1">
          <mxGeometry x="160" y="360" width="70" height="20" as="geometry" />
        </mxCell>
        <mxCell id="O2MHETSp67tyu0d_eCPM-33" style="edgeStyle=none;rounded=0;orthogonalLoop=1;jettySize=auto;html=1;exitX=1;exitY=0.5;exitDx=0;exitDy=0;entryX=0.04;entryY=0.656;entryDx=0;entryDy=0;entryPerimeter=0;fontSize=14;" edge="1" parent="1" source="O2MHETSp67tyu0d_eCPM-30" target="O2MHETSp67tyu0d_eCPM-31">
          <mxGeometry relative="1" as="geometry" />
        </mxCell>
        <mxCell id="O2MHETSp67tyu0d_eCPM-42" style="edgeStyle=none;rounded=0;orthogonalLoop=1;jettySize=auto;html=1;exitX=1;exitY=0.5;exitDx=0;exitDy=0;fontSize=14;" edge="1" parent="1" source="O2MHETSp67tyu0d_eCPM-30" target="O2MHETSp67tyu0d_eCPM-35">
          <mxGeometry relative="1" as="geometry" />
        </mxCell>
        <mxCell id="O2MHETSp67tyu0d_eCPM-46" style="edgeStyle=none;rounded=0;orthogonalLoop=1;jettySize=auto;html=1;exitX=1;exitY=0.5;exitDx=0;exitDy=0;fontSize=14;entryX=0;entryY=0.5;entryDx=0;entryDy=0;" edge="1" parent="1" source="O2MHETSp67tyu0d_eCPM-30" target="O2MHETSp67tyu0d_eCPM-43">
          <mxGeometry relative="1" as="geometry" />
        </mxCell>
        <mxCell id="O2MHETSp67tyu0d_eCPM-30" value="&lt;font style=&quot;font-size: 14px;&quot;&gt;x = y = 0&lt;/font&gt;" style="ellipse;whiteSpace=wrap;html=1;" vertex="1" parent="1">
          <mxGeometry x="100" y="480" width="60" height="50" as="geometry" />
        </mxCell>
        <mxCell id="O2MHETSp67tyu0d_eCPM-34" style="edgeStyle=none;rounded=0;orthogonalLoop=1;jettySize=auto;html=1;entryX=0;entryY=0.5;entryDx=0;entryDy=0;fontSize=14;" edge="1" parent="1" source="O2MHETSp67tyu0d_eCPM-31" target="O2MHETSp67tyu0d_eCPM-32">
          <mxGeometry relative="1" as="geometry" />
        </mxCell>
        <mxCell id="O2MHETSp67tyu0d_eCPM-31" value="&lt;font style=&quot;font-size: 14px;&quot;&gt;write x =1&lt;/font&gt;" style="ellipse;whiteSpace=wrap;html=1;" vertex="1" parent="1">
          <mxGeometry x="230" y="400" width="80" height="50" as="geometry" />
        </mxCell>
        <mxCell id="O2MHETSp67tyu0d_eCPM-32" value="&lt;font style=&quot;font-size: 14px;&quot;&gt;write y =1&lt;/font&gt;" style="ellipse;whiteSpace=wrap;html=1;" vertex="1" parent="1">
          <mxGeometry x="360" y="400" width="80" height="50" as="geometry" />
        </mxCell>
        <mxCell id="O2MHETSp67tyu0d_eCPM-36" style="edgeStyle=none;rounded=0;orthogonalLoop=1;jettySize=auto;html=1;exitX=1;exitY=0.5;exitDx=0;exitDy=0;fontSize=14;entryX=0;entryY=0.5;entryDx=0;entryDy=0;" edge="1" parent="1" source="O2MHETSp67tyu0d_eCPM-35" target="O2MHETSp67tyu0d_eCPM-37">
          <mxGeometry relative="1" as="geometry">
            <mxPoint x="330" y="515" as="targetPoint" />
          </mxGeometry>
        </mxCell>
        <mxCell id="O2MHETSp67tyu0d_eCPM-35" value="&lt;font style=&quot;font-size: 14px;&quot;&gt;read x =1&lt;/font&gt;" style="ellipse;whiteSpace=wrap;html=1;" vertex="1" parent="1">
          <mxGeometry x="230" y="490" width="80" height="50" as="geometry" />
        </mxCell>
        <mxCell id="O2MHETSp67tyu0d_eCPM-41" style="edgeStyle=none;rounded=0;orthogonalLoop=1;jettySize=auto;html=1;exitX=1;exitY=0.5;exitDx=0;exitDy=0;entryX=0;entryY=0.5;entryDx=0;entryDy=0;fontSize=14;" edge="1" parent="1" source="O2MHETSp67tyu0d_eCPM-37" target="O2MHETSp67tyu0d_eCPM-38">
          <mxGeometry relative="1" as="geometry" />
        </mxCell>
        <mxCell id="O2MHETSp67tyu0d_eCPM-37" value="&lt;font style=&quot;font-size: 14px;&quot;&gt;write r1 =1&lt;/font&gt;" style="ellipse;whiteSpace=wrap;html=1;" vertex="1" parent="1">
          <mxGeometry x="330" y="490" width="80" height="50" as="geometry" />
        </mxCell>
        <mxCell id="O2MHETSp67tyu0d_eCPM-40" style="edgeStyle=none;rounded=0;orthogonalLoop=1;jettySize=auto;html=1;exitX=1;exitY=0.5;exitDx=0;exitDy=0;entryX=0;entryY=0.5;entryDx=0;entryDy=0;fontSize=14;" edge="1" parent="1" source="O2MHETSp67tyu0d_eCPM-38" target="O2MHETSp67tyu0d_eCPM-39">
          <mxGeometry relative="1" as="geometry" />
        </mxCell>
        <mxCell id="O2MHETSp67tyu0d_eCPM-38" value="&lt;font style=&quot;font-size: 14px;&quot;&gt;read y = 0&lt;/font&gt;" style="ellipse;whiteSpace=wrap;html=1;" vertex="1" parent="1">
          <mxGeometry x="460" y="490" width="80" height="50" as="geometry" />
        </mxCell>
        <mxCell id="O2MHETSp67tyu0d_eCPM-39" value="&lt;font style=&quot;font-size: 14px;&quot;&gt;write r2 = 0&lt;/font&gt;" style="ellipse;whiteSpace=wrap;html=1;" vertex="1" parent="1">
          <mxGeometry x="560" y="490" width="80" height="50" as="geometry" />
        </mxCell>
        <mxCell id="O2MHETSp67tyu0d_eCPM-45" style="edgeStyle=none;rounded=0;orthogonalLoop=1;jettySize=auto;html=1;exitX=1;exitY=0.5;exitDx=0;exitDy=0;entryX=0;entryY=0.5;entryDx=0;entryDy=0;fontSize=14;" edge="1" parent="1" source="O2MHETSp67tyu0d_eCPM-43" target="O2MHETSp67tyu0d_eCPM-44">
          <mxGeometry relative="1" as="geometry" />
        </mxCell>
        <mxCell id="O2MHETSp67tyu0d_eCPM-43" value="&lt;font style=&quot;font-size: 14px;&quot;&gt;read y =1&lt;/font&gt;" style="ellipse;whiteSpace=wrap;html=1;" vertex="1" parent="1">
          <mxGeometry x="230" y="584.5" width="80" height="50" as="geometry" />
        </mxCell>
        <mxCell id="O2MHETSp67tyu0d_eCPM-48" style="edgeStyle=none;rounded=0;orthogonalLoop=1;jettySize=auto;html=1;exitX=1;exitY=0.5;exitDx=0;exitDy=0;entryX=0;entryY=0.5;entryDx=0;entryDy=0;fontSize=14;" edge="1" parent="1" source="O2MHETSp67tyu0d_eCPM-44" target="O2MHETSp67tyu0d_eCPM-47">
          <mxGeometry relative="1" as="geometry" />
        </mxCell>
        <mxCell id="O2MHETSp67tyu0d_eCPM-44" value="&lt;font style=&quot;font-size: 14px;&quot;&gt;write r3 =1&lt;/font&gt;" style="ellipse;whiteSpace=wrap;html=1;" vertex="1" parent="1">
          <mxGeometry x="330" y="585" width="80" height="50" as="geometry" />
        </mxCell>
        <mxCell id="O2MHETSp67tyu0d_eCPM-49" style="edgeStyle=none;rounded=0;orthogonalLoop=1;jettySize=auto;html=1;exitX=1;exitY=0.5;exitDx=0;exitDy=0;fontSize=14;" edge="1" parent="1" source="O2MHETSp67tyu0d_eCPM-47">
          <mxGeometry relative="1" as="geometry">
            <mxPoint x="560" y="610" as="targetPoint" />
          </mxGeometry>
        </mxCell>
        <mxCell id="O2MHETSp67tyu0d_eCPM-47" value="&lt;font style=&quot;font-size: 14px;&quot;&gt;read x = 0&lt;/font&gt;" style="ellipse;whiteSpace=wrap;html=1;" vertex="1" parent="1">
          <mxGeometry x="460" y="585" width="80" height="50" as="geometry" />
        </mxCell>
        <mxCell id="O2MHETSp67tyu0d_eCPM-50" value="&lt;font style=&quot;font-size: 14px;&quot;&gt;write r4 = 0&lt;/font&gt;" style="ellipse;whiteSpace=wrap;html=1;" vertex="1" parent="1">
          <mxGeometry x="560" y="585" width="80" height="50" as="geometry" />
        </mxCell>
        <mxCell id="O2MHETSp67tyu0d_eCPM-51" value="" style="fontSize=12;html=1;endFill=0;startFill=0;endSize=6;startSize=6;dashed=1;dashPattern=1 4;endArrow=openThin;startArrow=none;rounded=0;entryX=0.5;entryY=0;entryDx=0;entryDy=0;exitX=0.5;exitY=1;exitDx=0;exitDy=0;" edge="1" parent="1" source="O2MHETSp67tyu0d_eCPM-31" target="O2MHETSp67tyu0d_eCPM-35">
          <mxGeometry width="160" relative="1" as="geometry">
            <mxPoint x="220" y="460" as="sourcePoint" />
            <mxPoint x="170" y="380" as="targetPoint" />
          </mxGeometry>
        </mxCell>
        <mxCell id="O2MHETSp67tyu0d_eCPM-52" value="" style="fontSize=12;html=1;endFill=0;startFill=0;endSize=6;startSize=6;dashed=1;dashPattern=1 4;endArrow=openThin;startArrow=none;rounded=0;exitX=1;exitY=0;exitDx=0;exitDy=0;entryX=0.275;entryY=-0.04;entryDx=0;entryDy=0;entryPerimeter=0;edgeStyle=orthogonalEdgeStyle;curved=1;" edge="1" parent="1" source="O2MHETSp67tyu0d_eCPM-30" target="O2MHETSp67tyu0d_eCPM-38">
          <mxGeometry width="160" relative="1" as="geometry">
            <mxPoint x="130" y="380" as="sourcePoint" />
            <mxPoint x="170" y="380" as="targetPoint" />
            <Array as="points">
              <mxPoint x="151" y="460" />
              <mxPoint x="482" y="460" />
            </Array>
          </mxGeometry>
        </mxCell>
        <mxCell id="O2MHETSp67tyu0d_eCPM-53" value="" style="fontSize=12;html=1;endFill=0;startFill=0;endSize=6;startSize=6;dashed=1;dashPattern=1 4;endArrow=openThin;startArrow=none;rounded=0;exitX=1;exitY=1;exitDx=0;exitDy=0;entryX=1;entryY=0;entryDx=0;entryDy=0;edgeStyle=orthogonalEdgeStyle;curved=1;" edge="1" parent="1" source="O2MHETSp67tyu0d_eCPM-32" target="O2MHETSp67tyu0d_eCPM-43">
          <mxGeometry width="160" relative="1" as="geometry">
            <mxPoint x="130" y="380" as="sourcePoint" />
            <mxPoint x="170" y="380" as="targetPoint" />
            <Array as="points">
              <mxPoint x="428" y="560" />
              <mxPoint x="298" y="560" />
            </Array>
          </mxGeometry>
        </mxCell>
        <mxCell id="O2MHETSp67tyu0d_eCPM-54" value="" style="fontSize=12;html=1;endFill=0;startFill=0;endSize=6;startSize=6;dashed=1;dashPattern=1 4;endArrow=openThin;startArrow=none;rounded=0;exitX=1;exitY=1;exitDx=0;exitDy=0;entryX=0;entryY=1;entryDx=0;entryDy=0;edgeStyle=orthogonalEdgeStyle;curved=1;" edge="1" parent="1" source="O2MHETSp67tyu0d_eCPM-30" target="O2MHETSp67tyu0d_eCPM-47">
          <mxGeometry width="160" relative="1" as="geometry">
            <mxPoint x="130" y="380" as="sourcePoint" />
            <mxPoint x="170" y="380" as="targetPoint" />
            <Array as="points">
              <mxPoint x="151" y="660" />
              <mxPoint x="472" y="660" />
            </Array>
          </mxGeometry>
        </mxCell>
        <mxCell id="O2MHETSp67tyu0d_eCPM-55" value="" style="endArrow=classic;html=1;rounded=0;fontSize=14;" edge="1" parent="1">
          <mxGeometry width="50" height="50" relative="1" as="geometry">
            <mxPoint x="110" y="740" as="sourcePoint" />
            <mxPoint x="150" y="740" as="targetPoint" />
          </mxGeometry>
        </mxCell>
        <mxCell id="O2MHETSp67tyu0d_eCPM-56" value="po" style="text;html=1;strokeColor=none;fillColor=none;align=center;verticalAlign=middle;whiteSpace=wrap;rounded=0;fontSize=14;" vertex="1" parent="1">
          <mxGeometry x="150" y="730" width="30" height="20" as="geometry" />
        </mxCell>
        <mxCell id="O2MHETSp67tyu0d_eCPM-57" value="" style="fontSize=12;html=1;endFill=0;startFill=0;endSize=6;startSize=6;dashed=1;dashPattern=1 4;endArrow=openThin;startArrow=none;rounded=0;" edge="1" parent="1">
          <mxGeometry width="160" relative="1" as="geometry">
            <mxPoint x="110" y="760" as="sourcePoint" />
            <mxPoint x="150" y="760" as="targetPoint" />
          </mxGeometry>
        </mxCell>
        <mxCell id="O2MHETSp67tyu0d_eCPM-58" value="read from" style="text;html=1;strokeColor=none;fillColor=none;align=center;verticalAlign=middle;whiteSpace=wrap;rounded=0;fontSize=14;" vertex="1" parent="1">
          <mxGeometry x="150" y="750" width="70" height="20" as="geometry" />
        </mxCell>
        <mxCell id="O2MHETSp67tyu0d_eCPM-61" style="rounded=0;orthogonalLoop=1;jettySize=auto;html=1;exitX=1;exitY=0.5;exitDx=0;exitDy=0;entryX=0;entryY=0.5;entryDx=0;entryDy=0;fontSize=14;" edge="1" parent="1" source="O2MHETSp67tyu0d_eCPM-59" target="O2MHETSp67tyu0d_eCPM-60">
          <mxGeometry relative="1" as="geometry" />
        </mxCell>
        <mxCell id="O2MHETSp67tyu0d_eCPM-76" style="edgeStyle=none;rounded=0;orthogonalLoop=1;jettySize=auto;html=1;exitX=1;exitY=0.5;exitDx=0;exitDy=0;entryX=0;entryY=0.5;entryDx=0;entryDy=0;fontSize=14;" edge="1" parent="1" source="O2MHETSp67tyu0d_eCPM-59" target="O2MHETSp67tyu0d_eCPM-72">
          <mxGeometry relative="1" as="geometry" />
        </mxCell>
        <mxCell id="O2MHETSp67tyu0d_eCPM-59" value="&lt;font style=&quot;font-size: 14px;&quot;&gt;x = y = 0&lt;/font&gt;" style="ellipse;whiteSpace=wrap;html=1;" vertex="1" parent="1">
          <mxGeometry x="100" y="850" width="60" height="50" as="geometry" />
        </mxCell>
        <mxCell id="O2MHETSp67tyu0d_eCPM-63" style="edgeStyle=none;rounded=0;orthogonalLoop=1;jettySize=auto;html=1;exitX=1;exitY=0.5;exitDx=0;exitDy=0;entryX=0;entryY=0.5;entryDx=0;entryDy=0;fontSize=14;" edge="1" parent="1" source="O2MHETSp67tyu0d_eCPM-60" target="O2MHETSp67tyu0d_eCPM-62">
          <mxGeometry relative="1" as="geometry" />
        </mxCell>
        <mxCell id="O2MHETSp67tyu0d_eCPM-60" value="&lt;font style=&quot;font-size: 14px;&quot;&gt;read x =1&lt;/font&gt;" style="ellipse;whiteSpace=wrap;html=1;" vertex="1" parent="1">
          <mxGeometry x="220" y="800" width="80" height="50" as="geometry" />
        </mxCell>
        <mxCell id="O2MHETSp67tyu0d_eCPM-67" style="edgeStyle=none;rounded=0;orthogonalLoop=1;jettySize=auto;html=1;exitX=1;exitY=0.5;exitDx=0;exitDy=0;fontSize=14;" edge="1" parent="1" source="O2MHETSp67tyu0d_eCPM-62" target="O2MHETSp67tyu0d_eCPM-64">
          <mxGeometry relative="1" as="geometry" />
        </mxCell>
        <mxCell id="O2MHETSp67tyu0d_eCPM-62" value="&lt;font style=&quot;font-size: 14px;&quot;&gt;write r1 =1&lt;/font&gt;" style="ellipse;whiteSpace=wrap;html=1;" vertex="1" parent="1">
          <mxGeometry x="320" y="800" width="80" height="50" as="geometry" />
        </mxCell>
        <mxCell id="O2MHETSp67tyu0d_eCPM-65" style="edgeStyle=none;rounded=0;orthogonalLoop=1;jettySize=auto;html=1;exitX=1;exitY=0.5;exitDx=0;exitDy=0;fontSize=14;entryX=0;entryY=0.5;entryDx=0;entryDy=0;" edge="1" parent="1" source="O2MHETSp67tyu0d_eCPM-64" target="O2MHETSp67tyu0d_eCPM-66">
          <mxGeometry relative="1" as="geometry">
            <mxPoint x="530" y="825" as="targetPoint" />
          </mxGeometry>
        </mxCell>
        <mxCell id="O2MHETSp67tyu0d_eCPM-64" value="&lt;font style=&quot;font-size: 14px;&quot;&gt;read r1 =1&lt;/font&gt;" style="ellipse;whiteSpace=wrap;html=1;" vertex="1" parent="1">
          <mxGeometry x="440" y="800" width="80" height="50" as="geometry" />
        </mxCell>
        <mxCell id="O2MHETSp67tyu0d_eCPM-71" style="edgeStyle=none;rounded=0;orthogonalLoop=1;jettySize=auto;html=1;exitX=1;exitY=0.5;exitDx=0;exitDy=0;entryX=0;entryY=0.5;entryDx=0;entryDy=0;fontSize=14;" edge="1" parent="1" source="O2MHETSp67tyu0d_eCPM-66" target="O2MHETSp67tyu0d_eCPM-68">
          <mxGeometry relative="1" as="geometry" />
        </mxCell>
        <mxCell id="O2MHETSp67tyu0d_eCPM-66" value="&lt;font style=&quot;font-size: 14px;&quot;&gt;write r2 =1&lt;/font&gt;" style="ellipse;whiteSpace=wrap;html=1;" vertex="1" parent="1">
          <mxGeometry x="540" y="800" width="80" height="50" as="geometry" />
        </mxCell>
        <mxCell id="O2MHETSp67tyu0d_eCPM-70" style="edgeStyle=none;rounded=0;orthogonalLoop=1;jettySize=auto;html=1;exitX=1;exitY=0.5;exitDx=0;exitDy=0;entryX=0;entryY=0.5;entryDx=0;entryDy=0;fontSize=14;" edge="1" parent="1" source="O2MHETSp67tyu0d_eCPM-68" target="O2MHETSp67tyu0d_eCPM-69">
          <mxGeometry relative="1" as="geometry" />
        </mxCell>
        <mxCell id="O2MHETSp67tyu0d_eCPM-68" value="&lt;font style=&quot;font-size: 14px;&quot;&gt;read r2 =1&lt;/font&gt;" style="ellipse;whiteSpace=wrap;html=1;" vertex="1" parent="1">
          <mxGeometry x="670" y="800" width="80" height="50" as="geometry" />
        </mxCell>
        <mxCell id="O2MHETSp67tyu0d_eCPM-69" value="&lt;font style=&quot;font-size: 14px;&quot;&gt;write y =1&lt;/font&gt;" style="ellipse;whiteSpace=wrap;html=1;" vertex="1" parent="1">
          <mxGeometry x="770" y="800" width="80" height="50" as="geometry" />
        </mxCell>
        <mxCell id="O2MHETSp67tyu0d_eCPM-77" style="edgeStyle=none;rounded=0;orthogonalLoop=1;jettySize=auto;html=1;exitX=1;exitY=0.5;exitDx=0;exitDy=0;entryX=0;entryY=0.5;entryDx=0;entryDy=0;fontSize=14;" edge="1" parent="1" source="O2MHETSp67tyu0d_eCPM-72" target="O2MHETSp67tyu0d_eCPM-73">
          <mxGeometry relative="1" as="geometry" />
        </mxCell>
        <mxCell id="O2MHETSp67tyu0d_eCPM-72" value="&lt;font style=&quot;font-size: 14px;&quot;&gt;read y =1&lt;/font&gt;" style="ellipse;whiteSpace=wrap;html=1;" vertex="1" parent="1">
          <mxGeometry x="220" y="900" width="80" height="50" as="geometry" />
        </mxCell>
        <mxCell id="O2MHETSp67tyu0d_eCPM-78" style="edgeStyle=none;rounded=0;orthogonalLoop=1;jettySize=auto;html=1;exitX=1;exitY=0.5;exitDx=0;exitDy=0;entryX=0;entryY=0.5;entryDx=0;entryDy=0;fontSize=14;" edge="1" parent="1" source="O2MHETSp67tyu0d_eCPM-73" target="O2MHETSp67tyu0d_eCPM-74">
          <mxGeometry relative="1" as="geometry" />
        </mxCell>
        <mxCell id="O2MHETSp67tyu0d_eCPM-73" value="&lt;font style=&quot;font-size: 14px;&quot;&gt;write r3 =1&lt;/font&gt;" style="ellipse;whiteSpace=wrap;html=1;" vertex="1" parent="1">
          <mxGeometry x="320" y="900" width="80" height="50" as="geometry" />
        </mxCell>
        <mxCell id="O2MHETSp67tyu0d_eCPM-79" style="edgeStyle=none;rounded=0;orthogonalLoop=1;jettySize=auto;html=1;exitX=1;exitY=0.5;exitDx=0;exitDy=0;entryX=0;entryY=0.5;entryDx=0;entryDy=0;fontSize=14;" edge="1" parent="1" source="O2MHETSp67tyu0d_eCPM-74" target="O2MHETSp67tyu0d_eCPM-75">
          <mxGeometry relative="1" as="geometry" />
        </mxCell>
        <mxCell id="O2MHETSp67tyu0d_eCPM-74" value="&lt;font style=&quot;font-size: 14px;&quot;&gt;read r3 =1&lt;/font&gt;" style="ellipse;whiteSpace=wrap;html=1;" vertex="1" parent="1">
          <mxGeometry x="440" y="900" width="80" height="50" as="geometry" />
        </mxCell>
        <mxCell id="O2MHETSp67tyu0d_eCPM-75" value="&lt;font style=&quot;font-size: 14px;&quot;&gt;write x =1&lt;/font&gt;" style="ellipse;whiteSpace=wrap;html=1;" vertex="1" parent="1">
          <mxGeometry x="540" y="900" width="80" height="50" as="geometry" />
        </mxCell>
        <mxCell id="O2MHETSp67tyu0d_eCPM-80" value="" style="fontSize=12;html=1;endFill=0;startFill=0;endSize=6;startSize=6;dashed=1;dashPattern=1 4;endArrow=openThin;startArrow=none;rounded=0;exitX=0.5;exitY=0;exitDx=0;exitDy=0;entryX=1;entryY=1;entryDx=0;entryDy=0;" edge="1" parent="1" source="O2MHETSp67tyu0d_eCPM-75" target="O2MHETSp67tyu0d_eCPM-60">
          <mxGeometry width="160" relative="1" as="geometry">
            <mxPoint x="120" y="770" as="sourcePoint" />
            <mxPoint x="160" y="770" as="targetPoint" />
          </mxGeometry>
        </mxCell>
        <mxCell id="O2MHETSp67tyu0d_eCPM-81" value="" style="fontSize=12;html=1;endFill=0;startFill=0;endSize=6;startSize=6;dashed=1;dashPattern=1 4;endArrow=openThin;startArrow=none;rounded=0;exitX=1;exitY=0;exitDx=0;exitDy=0;entryX=0;entryY=0;entryDx=0;entryDy=0;edgeStyle=orthogonalEdgeStyle;curved=1;" edge="1" parent="1" source="O2MHETSp67tyu0d_eCPM-62" target="O2MHETSp67tyu0d_eCPM-64">
          <mxGeometry width="160" relative="1" as="geometry">
            <mxPoint x="590" y="910" as="sourcePoint" />
            <mxPoint x="298.2842712474618" y="852.6776695296635" as="targetPoint" />
            <Array as="points">
              <mxPoint x="388" y="790" />
              <mxPoint x="452" y="790" />
            </Array>
          </mxGeometry>
        </mxCell>
        <mxCell id="O2MHETSp67tyu0d_eCPM-83" value="" style="fontSize=12;html=1;endFill=0;startFill=0;endSize=6;startSize=6;dashed=1;dashPattern=1 4;endArrow=openThin;startArrow=none;rounded=0;exitX=1;exitY=0;exitDx=0;exitDy=0;entryX=0;entryY=0;entryDx=0;entryDy=0;edgeStyle=orthogonalEdgeStyle;curved=1;" edge="1" parent="1" source="O2MHETSp67tyu0d_eCPM-66" target="O2MHETSp67tyu0d_eCPM-68">
          <mxGeometry width="160" relative="1" as="geometry">
            <mxPoint x="590" y="910" as="sourcePoint" />
            <mxPoint x="298.2842712474618" y="852.6776695296635" as="targetPoint" />
            <Array as="points">
              <mxPoint x="608" y="790" />
              <mxPoint x="682" y="790" />
            </Array>
          </mxGeometry>
        </mxCell>
        <mxCell id="O2MHETSp67tyu0d_eCPM-84" value="" style="fontSize=12;html=1;endFill=0;startFill=0;endSize=6;startSize=6;dashed=1;dashPattern=1 4;endArrow=openThin;startArrow=none;rounded=0;exitX=0;exitY=1;exitDx=0;exitDy=0;entryX=0.5;entryY=0;entryDx=0;entryDy=0;" edge="1" parent="1" source="O2MHETSp67tyu0d_eCPM-69" target="O2MHETSp67tyu0d_eCPM-72">
          <mxGeometry width="160" relative="1" as="geometry">
            <mxPoint x="590" y="910" as="sourcePoint" />
            <mxPoint x="298.2842712474618" y="852.6776695296635" as="targetPoint" />
          </mxGeometry>
        </mxCell>
        <mxCell id="O2MHETSp67tyu0d_eCPM-85" value="" style="fontSize=12;html=1;endFill=0;startFill=0;endSize=6;startSize=6;dashed=1;dashPattern=1 4;endArrow=openThin;startArrow=none;rounded=0;exitX=1;exitY=1;exitDx=0;exitDy=0;entryX=0;entryY=1;entryDx=0;entryDy=0;edgeStyle=orthogonalEdgeStyle;curved=1;" edge="1" parent="1" source="O2MHETSp67tyu0d_eCPM-73" target="O2MHETSp67tyu0d_eCPM-74">
          <mxGeometry width="160" relative="1" as="geometry">
            <mxPoint x="791.7157287525381" y="852.6776695296637" as="sourcePoint" />
            <mxPoint x="270" y="910" as="targetPoint" />
            <Array as="points">
              <mxPoint x="388" y="960" />
              <mxPoint x="452" y="960" />
            </Array>
          </mxGeometry>
        </mxCell>
        <mxCell id="O2MHETSp67tyu0d_eCPM-86" value="" style="endArrow=classic;html=1;rounded=0;fontSize=14;" edge="1" parent="1">
          <mxGeometry width="50" height="50" relative="1" as="geometry">
            <mxPoint x="95.00000000000011" y="1030" as="sourcePoint" />
            <mxPoint x="135.0000000000001" y="1030" as="targetPoint" />
          </mxGeometry>
        </mxCell>
        <mxCell id="O2MHETSp67tyu0d_eCPM-87" value="po" style="text;html=1;strokeColor=none;fillColor=none;align=center;verticalAlign=middle;whiteSpace=wrap;rounded=0;fontSize=14;" vertex="1" parent="1">
          <mxGeometry x="135" y="1020" width="30" height="20" as="geometry" />
        </mxCell>
        <mxCell id="O2MHETSp67tyu0d_eCPM-88" value="" style="fontSize=12;html=1;endFill=0;startFill=0;endSize=6;startSize=6;dashed=1;dashPattern=1 4;endArrow=openThin;startArrow=none;rounded=0;strokeColor=#FF0000;" edge="1" parent="1">
          <mxGeometry width="160" relative="1" as="geometry">
            <mxPoint x="95.00000000000011" y="1050" as="sourcePoint" />
            <mxPoint x="135.0000000000001" y="1050" as="targetPoint" />
          </mxGeometry>
        </mxCell>
        <mxCell id="O2MHETSp67tyu0d_eCPM-89" value="read from" style="text;html=1;strokeColor=none;fillColor=none;align=center;verticalAlign=middle;whiteSpace=wrap;rounded=0;fontSize=14;" vertex="1" parent="1">
          <mxGeometry x="135" y="1040" width="70" height="20" as="geometry" />
        </mxCell>
        <mxCell id="O2MHETSp67tyu0d_eCPM-94" style="rounded=0;orthogonalLoop=1;jettySize=auto;html=1;exitX=1;exitY=0.5;exitDx=0;exitDy=0;entryX=0;entryY=0.5;entryDx=0;entryDy=0;fontSize=14;" edge="1" parent="1" source="O2MHETSp67tyu0d_eCPM-90" target="O2MHETSp67tyu0d_eCPM-91">
          <mxGeometry relative="1" as="geometry" />
        </mxCell>
        <mxCell id="O2MHETSp67tyu0d_eCPM-98" style="edgeStyle=none;rounded=0;orthogonalLoop=1;jettySize=auto;html=1;exitX=1;exitY=0.5;exitDx=0;exitDy=0;entryX=0;entryY=0.5;entryDx=0;entryDy=0;fontSize=14;" edge="1" parent="1" source="O2MHETSp67tyu0d_eCPM-90" target="O2MHETSp67tyu0d_eCPM-97">
          <mxGeometry relative="1" as="geometry" />
        </mxCell>
        <mxCell id="O2MHETSp67tyu0d_eCPM-90" value="&lt;font style=&quot;font-size: 14px;&quot;&gt;x = y = 0&lt;/font&gt;" style="ellipse;whiteSpace=wrap;html=1;" vertex="1" parent="1">
          <mxGeometry x="105" y="1119" width="60" height="50" as="geometry" />
        </mxCell>
        <mxCell id="O2MHETSp67tyu0d_eCPM-93" style="edgeStyle=orthogonalEdgeStyle;curved=1;rounded=0;orthogonalLoop=1;jettySize=auto;html=1;exitX=1;exitY=0.5;exitDx=0;exitDy=0;entryX=0;entryY=0.5;entryDx=0;entryDy=0;fontSize=14;" edge="1" parent="1" source="O2MHETSp67tyu0d_eCPM-91" target="O2MHETSp67tyu0d_eCPM-92">
          <mxGeometry relative="1" as="geometry" />
        </mxCell>
        <mxCell id="O2MHETSp67tyu0d_eCPM-91" value="&lt;font style=&quot;font-size: 14px;&quot;&gt;read x =1&lt;/font&gt;" style="ellipse;whiteSpace=wrap;html=1;" vertex="1" parent="1">
          <mxGeometry x="220" y="1070" width="80" height="50" as="geometry" />
        </mxCell>
        <mxCell id="O2MHETSp67tyu0d_eCPM-96" style="edgeStyle=none;rounded=0;orthogonalLoop=1;jettySize=auto;html=1;exitX=1;exitY=0.5;exitDx=0;exitDy=0;entryX=0;entryY=0.5;entryDx=0;entryDy=0;fontSize=14;" edge="1" parent="1" source="O2MHETSp67tyu0d_eCPM-92" target="O2MHETSp67tyu0d_eCPM-95">
          <mxGeometry relative="1" as="geometry" />
        </mxCell>
        <mxCell id="O2MHETSp67tyu0d_eCPM-92" value="&lt;font style=&quot;font-size: 14px;&quot;&gt;write r1 =1&lt;/font&gt;" style="ellipse;whiteSpace=wrap;html=1;" vertex="1" parent="1">
          <mxGeometry x="320" y="1070" width="80" height="50" as="geometry" />
        </mxCell>
        <mxCell id="O2MHETSp67tyu0d_eCPM-95" value="&lt;font style=&quot;font-size: 14px;&quot;&gt;write z =1&lt;/font&gt;" style="ellipse;whiteSpace=wrap;html=1;" vertex="1" parent="1">
          <mxGeometry x="440" y="1070" width="80" height="50" as="geometry" />
        </mxCell>
        <mxCell id="O2MHETSp67tyu0d_eCPM-100" style="edgeStyle=none;rounded=0;orthogonalLoop=1;jettySize=auto;html=1;exitX=1;exitY=0.5;exitDx=0;exitDy=0;entryX=0;entryY=0.5;entryDx=0;entryDy=0;fontSize=14;" edge="1" parent="1" source="O2MHETSp67tyu0d_eCPM-97" target="O2MHETSp67tyu0d_eCPM-99">
          <mxGeometry relative="1" as="geometry" />
        </mxCell>
        <mxCell id="O2MHETSp67tyu0d_eCPM-97" value="&lt;font style=&quot;font-size: 14px;&quot;&gt;read y = 0&lt;/font&gt;" style="ellipse;whiteSpace=wrap;html=1;" vertex="1" parent="1">
          <mxGeometry x="220" y="1160" width="80" height="50" as="geometry" />
        </mxCell>
        <mxCell id="O2MHETSp67tyu0d_eCPM-104" style="edgeStyle=none;rounded=0;orthogonalLoop=1;jettySize=auto;html=1;exitX=1;exitY=0.5;exitDx=0;exitDy=0;entryX=0;entryY=0.5;entryDx=0;entryDy=0;fontSize=14;" edge="1" parent="1" source="O2MHETSp67tyu0d_eCPM-99" target="O2MHETSp67tyu0d_eCPM-101">
          <mxGeometry relative="1" as="geometry" />
        </mxCell>
        <mxCell id="O2MHETSp67tyu0d_eCPM-99" value="&lt;font style=&quot;font-size: 14px;&quot;&gt;write r2 =0&lt;/font&gt;" style="ellipse;whiteSpace=wrap;html=1;" vertex="1" parent="1">
          <mxGeometry x="320" y="1160" width="80" height="50" as="geometry" />
        </mxCell>
        <mxCell id="O2MHETSp67tyu0d_eCPM-103" style="edgeStyle=none;rounded=0;orthogonalLoop=1;jettySize=auto;html=1;exitX=1;exitY=0.5;exitDx=0;exitDy=0;entryX=0;entryY=0.5;entryDx=0;entryDy=0;fontSize=14;" edge="1" parent="1" source="O2MHETSp67tyu0d_eCPM-101" target="O2MHETSp67tyu0d_eCPM-102">
          <mxGeometry relative="1" as="geometry" />
        </mxCell>
        <mxCell id="O2MHETSp67tyu0d_eCPM-101" value="&lt;font style=&quot;font-size: 14px;&quot;&gt;read z = 1&lt;/font&gt;" style="ellipse;whiteSpace=wrap;html=1;" vertex="1" parent="1">
          <mxGeometry x="440" y="1160" width="80" height="50" as="geometry" />
        </mxCell>
        <mxCell id="O2MHETSp67tyu0d_eCPM-106" style="edgeStyle=none;rounded=0;orthogonalLoop=1;jettySize=auto;html=1;exitX=1;exitY=0.5;exitDx=0;exitDy=0;entryX=0;entryY=0.5;entryDx=0;entryDy=0;fontSize=14;" edge="1" parent="1" source="O2MHETSp67tyu0d_eCPM-102" target="O2MHETSp67tyu0d_eCPM-105">
          <mxGeometry relative="1" as="geometry" />
        </mxCell>
        <mxCell id="O2MHETSp67tyu0d_eCPM-102" value="&lt;font style=&quot;font-size: 14px;&quot;&gt;write r3 = 1&lt;/font&gt;" style="ellipse;whiteSpace=wrap;html=1;" vertex="1" parent="1">
          <mxGeometry x="540" y="1160" width="80" height="50" as="geometry" />
        </mxCell>
        <mxCell id="O2MHETSp67tyu0d_eCPM-105" value="&lt;font style=&quot;font-size: 14px;&quot;&gt;write x = 1&lt;/font&gt;" style="ellipse;whiteSpace=wrap;html=1;" vertex="1" parent="1">
          <mxGeometry x="660" y="1160" width="80" height="50" as="geometry" />
        </mxCell>
        <mxCell id="O2MHETSp67tyu0d_eCPM-107" value="" style="fontSize=12;html=1;endFill=0;startFill=0;endSize=6;startSize=6;dashed=1;dashPattern=1 4;endArrow=openThin;startArrow=none;rounded=0;exitX=1;exitY=1;exitDx=0;exitDy=0;entryX=0;entryY=1;entryDx=0;entryDy=0;edgeStyle=orthogonalEdgeStyle;curved=1;strokeColor=#FF0000;" edge="1" parent="1" source="O2MHETSp67tyu0d_eCPM-90" target="O2MHETSp67tyu0d_eCPM-97">
          <mxGeometry width="160" relative="1" as="geometry">
            <mxPoint x="105.00000000000011" y="1060" as="sourcePoint" />
            <mxPoint x="145.0000000000001" y="1060" as="targetPoint" />
            <Array as="points">
              <mxPoint x="170" y="1161" />
              <mxPoint x="170" y="1202" />
            </Array>
          </mxGeometry>
        </mxCell>
        <mxCell id="O2MHETSp67tyu0d_eCPM-108" value="" style="fontSize=12;html=1;endFill=0;startFill=0;endSize=6;startSize=6;dashed=1;dashPattern=1 4;endArrow=openThin;startArrow=none;rounded=0;exitX=1;exitY=1;exitDx=0;exitDy=0;entryX=0;entryY=1;entryDx=0;entryDy=0;edgeStyle=orthogonalEdgeStyle;curved=1;strokeColor=#FF0000;" edge="1" parent="1">
          <mxGeometry width="160" relative="1" as="geometry">
            <mxPoint x="156.51838142577685" y="1161.4196421065813" as="sourcePoint" />
            <mxPoint x="231.30882476562806" y="1202.4196421065833" as="targetPoint" />
            <Array as="points">
              <mxPoint x="170" y="1161" />
              <mxPoint x="170" y="1202" />
            </Array>
          </mxGeometry>
        </mxCell>
        <mxCell id="O2MHETSp67tyu0d_eCPM-109" value="" style="fontSize=12;html=1;endFill=0;startFill=0;endSize=6;startSize=6;dashed=1;dashPattern=1 4;endArrow=openThin;startArrow=none;rounded=0;strokeColor=#FF0000;" edge="1" parent="1">
          <mxGeometry width="160" relative="1" as="geometry">
            <mxPoint x="95.00000000000011" y="1050" as="sourcePoint" />
            <mxPoint x="135.0000000000001" y="1050" as="targetPoint" />
          </mxGeometry>
        </mxCell>
        <mxCell id="O2MHETSp67tyu0d_eCPM-110" value="" style="fontSize=12;html=1;endFill=0;startFill=0;endSize=6;startSize=6;dashed=1;dashPattern=1 4;endArrow=openThin;startArrow=none;rounded=0;exitX=1;exitY=1;exitDx=0;exitDy=0;entryX=0;entryY=1;entryDx=0;entryDy=0;edgeStyle=orthogonalEdgeStyle;curved=1;strokeColor=#FF0000;" edge="1" parent="1">
          <mxGeometry width="160" relative="1" as="geometry">
            <mxPoint x="388.69117523437217" y="942.4196421065833" as="sourcePoint" />
            <mxPoint x="451.3088247656367" y="942.4196421065774" as="targetPoint" />
            <Array as="points">
              <mxPoint x="388" y="960" />
              <mxPoint x="452" y="960" />
            </Array>
          </mxGeometry>
        </mxCell>
        <mxCell id="O2MHETSp67tyu0d_eCPM-111" value="" style="fontSize=12;html=1;endFill=0;startFill=0;endSize=6;startSize=6;dashed=1;dashPattern=1 4;endArrow=openThin;startArrow=none;rounded=0;exitX=0;exitY=1;exitDx=0;exitDy=0;entryX=0.5;entryY=0;entryDx=0;entryDy=0;strokeColor=#FF0000;" edge="1" parent="1">
          <mxGeometry width="160" relative="1" as="geometry">
            <mxPoint x="781.3088247656308" y="842.4196421065813" as="sourcePoint" />
            <mxPoint x="260" y="900" as="targetPoint" />
          </mxGeometry>
        </mxCell>
        <mxCell id="O2MHETSp67tyu0d_eCPM-112" value="" style="fontSize=12;html=1;endFill=0;startFill=0;endSize=6;startSize=6;dashed=1;dashPattern=1 4;endArrow=openThin;startArrow=none;rounded=0;exitX=0.5;exitY=0;exitDx=0;exitDy=0;entryX=1;entryY=1;entryDx=0;entryDy=0;strokeColor=#FF0000;" edge="1" parent="1">
          <mxGeometry width="160" relative="1" as="geometry">
            <mxPoint x="580" y="900" as="sourcePoint" />
            <mxPoint x="288.69117523437217" y="842.4196421065828" as="targetPoint" />
          </mxGeometry>
        </mxCell>
        <mxCell id="O2MHETSp67tyu0d_eCPM-113" value="" style="fontSize=12;html=1;endFill=0;startFill=0;endSize=6;startSize=6;dashed=1;dashPattern=1 4;endArrow=openThin;startArrow=none;rounded=0;exitX=1;exitY=0;exitDx=0;exitDy=0;entryX=0;entryY=0;entryDx=0;entryDy=0;edgeStyle=orthogonalEdgeStyle;curved=1;strokeColor=#FF0000;" edge="1" parent="1">
          <mxGeometry width="160" relative="1" as="geometry">
            <mxPoint x="388.69117523437217" y="807.5803578934169" as="sourcePoint" />
            <mxPoint x="451.3088247656367" y="807.5803578934224" as="targetPoint" />
            <Array as="points">
              <mxPoint x="388" y="790" />
              <mxPoint x="452" y="790" />
            </Array>
          </mxGeometry>
        </mxCell>
        <mxCell id="O2MHETSp67tyu0d_eCPM-114" value="" style="fontSize=12;html=1;endFill=0;startFill=0;endSize=6;startSize=6;dashed=1;dashPattern=1 4;endArrow=openThin;startArrow=none;rounded=0;exitX=1;exitY=0;exitDx=0;exitDy=0;entryX=0;entryY=0;entryDx=0;entryDy=0;edgeStyle=orthogonalEdgeStyle;curved=1;strokeColor=#FF0000;" edge="1" parent="1">
          <mxGeometry width="160" relative="1" as="geometry">
            <mxPoint x="608.691175234369" y="807.5803578934187" as="sourcePoint" />
            <mxPoint x="681.3088247656308" y="807.5803578934187" as="targetPoint" />
            <Array as="points">
              <mxPoint x="608" y="790" />
              <mxPoint x="682" y="790" />
            </Array>
          </mxGeometry>
        </mxCell>
        <mxCell id="O2MHETSp67tyu0d_eCPM-115" value="" style="fontSize=12;html=1;endFill=0;startFill=0;endSize=6;startSize=6;dashed=1;dashPattern=1 4;endArrow=openThin;startArrow=none;rounded=0;strokeColor=#FF0000;" edge="1" parent="1">
          <mxGeometry width="160" relative="1" as="geometry">
            <mxPoint x="110.00000000000011" y="760" as="sourcePoint" />
            <mxPoint x="150.0000000000001" y="760" as="targetPoint" />
          </mxGeometry>
        </mxCell>
        <mxCell id="O2MHETSp67tyu0d_eCPM-116" value="" style="fontSize=12;html=1;endFill=0;startFill=0;endSize=6;startSize=6;dashed=1;dashPattern=1 4;endArrow=openThin;startArrow=none;rounded=0;exitX=1;exitY=1;exitDx=0;exitDy=0;entryX=0;entryY=1;entryDx=0;entryDy=0;edgeStyle=orthogonalEdgeStyle;curved=1;strokeColor=#FF0000;" edge="1" parent="1">
          <mxGeometry width="160" relative="1" as="geometry">
            <mxPoint x="151.51838142577685" y="522.4196421065813" as="sourcePoint" />
            <mxPoint x="471.3088247656367" y="627.4196421065776" as="targetPoint" />
            <Array as="points">
              <mxPoint x="151" y="660" />
              <mxPoint x="472" y="660" />
            </Array>
          </mxGeometry>
        </mxCell>
        <mxCell id="O2MHETSp67tyu0d_eCPM-117" value="" style="fontSize=12;html=1;endFill=0;startFill=0;endSize=6;startSize=6;dashed=1;dashPattern=1 4;endArrow=openThin;startArrow=none;rounded=0;strokeColor=#FF0000;" edge="1" parent="1">
          <mxGeometry width="160" relative="1" as="geometry">
            <mxPoint x="120.00000000000011" y="370" as="sourcePoint" />
            <mxPoint x="160.0000000000001" y="370" as="targetPoint" />
          </mxGeometry>
        </mxCell>
        <mxCell id="O2MHETSp67tyu0d_eCPM-118" value="" style="fontSize=12;html=1;endFill=0;startFill=0;endSize=6;startSize=6;dashed=1;dashPattern=1 4;endArrow=openThin;startArrow=none;rounded=0;exitX=1;exitY=0;exitDx=0;exitDy=0;entryX=0.275;entryY=-0.04;entryDx=0;entryDy=0;entryPerimeter=0;edgeStyle=orthogonalEdgeStyle;curved=1;strokeColor=#FF0000;" edge="1" parent="1">
          <mxGeometry width="160" relative="1" as="geometry">
            <mxPoint x="151.51838142577685" y="487.58035789341875" as="sourcePoint" />
            <mxPoint x="482" y="488" as="targetPoint" />
            <Array as="points">
              <mxPoint x="151" y="460" />
              <mxPoint x="482" y="460" />
            </Array>
          </mxGeometry>
        </mxCell>
        <mxCell id="O2MHETSp67tyu0d_eCPM-119" value="" style="fontSize=12;html=1;endFill=0;startFill=0;endSize=6;startSize=6;dashed=1;dashPattern=1 4;endArrow=openThin;startArrow=none;rounded=0;entryX=0.5;entryY=0;entryDx=0;entryDy=0;exitX=0.5;exitY=1;exitDx=0;exitDy=0;strokeColor=#FF0000;" edge="1" parent="1">
          <mxGeometry width="160" relative="1" as="geometry">
            <mxPoint x="270" y="450" as="sourcePoint" />
            <mxPoint x="270" y="490" as="targetPoint" />
          </mxGeometry>
        </mxCell>
        <mxCell id="O2MHETSp67tyu0d_eCPM-120" value="" style="fontSize=12;html=1;endFill=0;startFill=0;endSize=6;startSize=6;dashed=1;dashPattern=1 4;endArrow=openThin;startArrow=none;rounded=0;exitX=1;exitY=1;exitDx=0;exitDy=0;entryX=1;entryY=0;entryDx=0;entryDy=0;edgeStyle=orthogonalEdgeStyle;curved=1;strokeColor=#FF0000;" edge="1" parent="1">
          <mxGeometry width="160" relative="1" as="geometry">
            <mxPoint x="428.69117523437535" y="442.4196421065849" as="sourcePoint" />
            <mxPoint x="298.69117523437217" y="592.0803578934169" as="targetPoint" />
            <Array as="points">
              <mxPoint x="428" y="560" />
              <mxPoint x="298" y="560" />
            </Array>
          </mxGeometry>
        </mxCell>
        <mxCell id="O2MHETSp67tyu0d_eCPM-121" value="" style="fontSize=12;html=1;endFill=0;startFill=0;endSize=6;startSize=6;dashed=1;dashPattern=1 4;endArrow=openThin;startArrow=none;rounded=0;strokeColor=#FF0000;" edge="1" parent="1">
          <mxGeometry width="160" relative="1" as="geometry">
            <mxPoint x="110.00000000000011" y="60" as="sourcePoint" />
            <mxPoint x="150.0000000000001" y="60" as="targetPoint" />
          </mxGeometry>
        </mxCell>
        <mxCell id="O2MHETSp67tyu0d_eCPM-122" value="" style="fontSize=12;html=1;endFill=0;startFill=0;endSize=6;startSize=6;dashed=1;dashPattern=1 4;endArrow=openThin;startArrow=none;rounded=0;exitX=0;exitY=0;exitDx=0;exitDy=0;entryX=0.723;entryY=1.004;entryDx=0;entryDy=0;entryPerimeter=0;strokeColor=#FF0000;" edge="1" parent="1">
          <mxGeometry width="160" relative="1" as="geometry">
            <mxPoint x="481.30882476563056" y="227.58035789341852" as="sourcePoint" />
            <mxPoint x="277.84000000000015" y="160.19999999999993" as="targetPoint" />
          </mxGeometry>
        </mxCell>
        <mxCell id="O2MHETSp67tyu0d_eCPM-123" value="" style="fontSize=12;html=1;endFill=0;startFill=0;endSize=6;startSize=6;dashed=1;dashPattern=1 4;endArrow=openThin;startArrow=none;rounded=0;strokeColor=#FF0000;exitX=0;exitY=0;exitDx=0;exitDy=0;entryX=0.5;entryY=1;entryDx=0;entryDy=0;" edge="1" parent="1" source="O2MHETSp67tyu0d_eCPM-105" target="O2MHETSp67tyu0d_eCPM-91">
          <mxGeometry width="160" relative="1" as="geometry">
            <mxPoint x="105.00000000000011" y="1060" as="sourcePoint" />
            <mxPoint x="145.0000000000001" y="1060" as="targetPoint" />
          </mxGeometry>
        </mxCell>
        <mxCell id="O2MHETSp67tyu0d_eCPM-124" value="" style="fontSize=12;html=1;endFill=0;startFill=0;endSize=6;startSize=6;dashed=1;dashPattern=1 4;endArrow=openThin;startArrow=none;rounded=0;strokeColor=#FF0000;exitX=0.5;exitY=1;exitDx=0;exitDy=0;entryX=0.5;entryY=0;entryDx=0;entryDy=0;" edge="1" parent="1" source="O2MHETSp67tyu0d_eCPM-95" target="O2MHETSp67tyu0d_eCPM-101">
          <mxGeometry width="160" relative="1" as="geometry">
            <mxPoint x="681.3088247656308" y="1177.5803578934187" as="sourcePoint" />
            <mxPoint x="270" y="1130" as="targetPoint" />
          </mxGeometry>
        </mxCell>
        <mxCell id="O2MHETSp67tyu0d_eCPM-125" value="" style="endArrow=classic;html=1;rounded=0;fontSize=14;" edge="1" parent="1">
          <mxGeometry width="50" height="50" relative="1" as="geometry">
            <mxPoint x="95.00000000000011" y="1270" as="sourcePoint" />
            <mxPoint x="135.0000000000001" y="1270" as="targetPoint" />
          </mxGeometry>
        </mxCell>
        <mxCell id="O2MHETSp67tyu0d_eCPM-126" value="po" style="text;html=1;strokeColor=none;fillColor=none;align=center;verticalAlign=middle;whiteSpace=wrap;rounded=0;fontSize=14;" vertex="1" parent="1">
          <mxGeometry x="135" y="1260" width="30" height="20" as="geometry" />
        </mxCell>
        <mxCell id="O2MHETSp67tyu0d_eCPM-127" value="" style="fontSize=12;html=1;endFill=0;startFill=0;endSize=6;startSize=6;dashed=1;dashPattern=1 4;endArrow=openThin;startArrow=none;rounded=0;strokeColor=#FF0000;" edge="1" parent="1">
          <mxGeometry width="160" relative="1" as="geometry">
            <mxPoint x="95.00000000000011" y="1290" as="sourcePoint" />
            <mxPoint x="135.0000000000001" y="1290" as="targetPoint" />
          </mxGeometry>
        </mxCell>
        <mxCell id="O2MHETSp67tyu0d_eCPM-128" value="read from" style="text;html=1;strokeColor=none;fillColor=none;align=center;verticalAlign=middle;whiteSpace=wrap;rounded=0;fontSize=14;" vertex="1" parent="1">
          <mxGeometry x="135" y="1280" width="70" height="20" as="geometry" />
        </mxCell>
        <mxCell id="O2MHETSp67tyu0d_eCPM-129" value="" style="fontSize=12;html=1;endFill=0;startFill=0;endSize=6;startSize=6;dashed=1;dashPattern=1 4;endArrow=openThin;startArrow=none;rounded=0;strokeColor=#FF0000;" edge="1" parent="1">
          <mxGeometry width="160" relative="1" as="geometry">
            <mxPoint x="95.00000000000011" y="1290" as="sourcePoint" />
            <mxPoint x="135.0000000000001" y="1290" as="targetPoint" />
          </mxGeometry>
        </mxCell>
        <mxCell id="O2MHETSp67tyu0d_eCPM-146" style="rounded=0;orthogonalLoop=1;jettySize=auto;html=1;exitX=1;exitY=0.5;exitDx=0;exitDy=0;entryX=0;entryY=0.5;entryDx=0;entryDy=0;fontSize=14;strokeColor=#000000;" edge="1" parent="1" source="O2MHETSp67tyu0d_eCPM-130" target="O2MHETSp67tyu0d_eCPM-131">
          <mxGeometry relative="1" as="geometry" />
        </mxCell>
        <mxCell id="O2MHETSp67tyu0d_eCPM-151" style="edgeStyle=none;rounded=0;orthogonalLoop=1;jettySize=auto;html=1;exitX=1;exitY=0.5;exitDx=0;exitDy=0;entryX=0;entryY=0.5;entryDx=0;entryDy=0;fontSize=14;strokeColor=#000000;" edge="1" parent="1" source="O2MHETSp67tyu0d_eCPM-130" target="O2MHETSp67tyu0d_eCPM-147">
          <mxGeometry relative="1" as="geometry" />
        </mxCell>
        <mxCell id="O2MHETSp67tyu0d_eCPM-130" value="&lt;font style=&quot;font-size: 14px;&quot;&gt;x = y = z = w = 0&lt;/font&gt;" style="ellipse;whiteSpace=wrap;html=1;" vertex="1" parent="1">
          <mxGeometry x="90" y="1390" width="120" height="60" as="geometry" />
        </mxCell>
        <mxCell id="O2MHETSp67tyu0d_eCPM-133" style="edgeStyle=orthogonalEdgeStyle;curved=1;rounded=0;orthogonalLoop=1;jettySize=auto;html=1;exitX=1;exitY=0.5;exitDx=0;exitDy=0;entryX=0;entryY=0.5;entryDx=0;entryDy=0;fontSize=14;strokeColor=#000000;" edge="1" parent="1" source="O2MHETSp67tyu0d_eCPM-131" target="O2MHETSp67tyu0d_eCPM-132">
          <mxGeometry relative="1" as="geometry" />
        </mxCell>
        <mxCell id="O2MHETSp67tyu0d_eCPM-131" value="&lt;font style=&quot;font-size: 14px;&quot;&gt;read z =1&lt;/font&gt;" style="ellipse;whiteSpace=wrap;html=1;" vertex="1" parent="1">
          <mxGeometry x="260" y="1330" width="80" height="50" as="geometry" />
        </mxCell>
        <mxCell id="O2MHETSp67tyu0d_eCPM-135" style="edgeStyle=orthogonalEdgeStyle;curved=1;rounded=0;orthogonalLoop=1;jettySize=auto;html=1;exitX=1;exitY=0.5;exitDx=0;exitDy=0;entryX=0;entryY=0.5;entryDx=0;entryDy=0;fontSize=14;strokeColor=#000000;" edge="1" parent="1" source="O2MHETSp67tyu0d_eCPM-132" target="O2MHETSp67tyu0d_eCPM-134">
          <mxGeometry relative="1" as="geometry" />
        </mxCell>
        <mxCell id="O2MHETSp67tyu0d_eCPM-132" value="&lt;font style=&quot;font-size: 14px;&quot;&gt;write r1 =1&lt;/font&gt;" style="ellipse;whiteSpace=wrap;html=1;" vertex="1" parent="1">
          <mxGeometry x="360" y="1330" width="80" height="50" as="geometry" />
        </mxCell>
        <mxCell id="O2MHETSp67tyu0d_eCPM-137" style="edgeStyle=orthogonalEdgeStyle;curved=1;rounded=0;orthogonalLoop=1;jettySize=auto;html=1;exitX=1;exitY=0.5;exitDx=0;exitDy=0;entryX=0;entryY=0.5;entryDx=0;entryDy=0;fontSize=14;strokeColor=#000000;" edge="1" parent="1" source="O2MHETSp67tyu0d_eCPM-134" target="O2MHETSp67tyu0d_eCPM-136">
          <mxGeometry relative="1" as="geometry" />
        </mxCell>
        <mxCell id="O2MHETSp67tyu0d_eCPM-134" value="&lt;font style=&quot;font-size: 14px;&quot;&gt;read r1 =1&lt;/font&gt;" style="ellipse;whiteSpace=wrap;html=1;" vertex="1" parent="1">
          <mxGeometry x="480" y="1330" width="80" height="50" as="geometry" />
        </mxCell>
        <mxCell id="O2MHETSp67tyu0d_eCPM-140" style="edgeStyle=orthogonalEdgeStyle;curved=1;rounded=0;orthogonalLoop=1;jettySize=auto;html=1;exitX=1;exitY=0.5;exitDx=0;exitDy=0;entryX=0;entryY=0.5;entryDx=0;entryDy=0;fontSize=14;strokeColor=#000000;" edge="1" parent="1" source="O2MHETSp67tyu0d_eCPM-136" target="O2MHETSp67tyu0d_eCPM-138">
          <mxGeometry relative="1" as="geometry" />
        </mxCell>
        <mxCell id="O2MHETSp67tyu0d_eCPM-136" value="&lt;font style=&quot;font-size: 14px;&quot;&gt;write w =1&lt;/font&gt;" style="ellipse;whiteSpace=wrap;html=1;" vertex="1" parent="1">
          <mxGeometry x="580" y="1330" width="80" height="50" as="geometry" />
        </mxCell>
        <mxCell id="O2MHETSp67tyu0d_eCPM-141" style="edgeStyle=orthogonalEdgeStyle;curved=1;rounded=0;orthogonalLoop=1;jettySize=auto;html=1;exitX=1;exitY=0.5;exitDx=0;exitDy=0;entryX=0;entryY=0.5;entryDx=0;entryDy=0;fontSize=14;strokeColor=#000000;" edge="1" parent="1" source="O2MHETSp67tyu0d_eCPM-138" target="O2MHETSp67tyu0d_eCPM-139">
          <mxGeometry relative="1" as="geometry" />
        </mxCell>
        <mxCell id="O2MHETSp67tyu0d_eCPM-138" value="&lt;font style=&quot;font-size: 14px;&quot;&gt;read x =1&lt;/font&gt;" style="ellipse;whiteSpace=wrap;html=1;" vertex="1" parent="1">
          <mxGeometry x="700" y="1330" width="80" height="50" as="geometry" />
        </mxCell>
        <mxCell id="O2MHETSp67tyu0d_eCPM-144" style="edgeStyle=orthogonalEdgeStyle;curved=1;rounded=0;orthogonalLoop=1;jettySize=auto;html=1;exitX=1;exitY=0.5;exitDx=0;exitDy=0;entryX=0;entryY=0.5;entryDx=0;entryDy=0;fontSize=14;strokeColor=#000000;" edge="1" parent="1" source="O2MHETSp67tyu0d_eCPM-139" target="O2MHETSp67tyu0d_eCPM-142">
          <mxGeometry relative="1" as="geometry" />
        </mxCell>
        <mxCell id="O2MHETSp67tyu0d_eCPM-139" value="&lt;font style=&quot;font-size: 14px;&quot;&gt;write r2 =1&lt;/font&gt;" style="ellipse;whiteSpace=wrap;html=1;" vertex="1" parent="1">
          <mxGeometry x="800" y="1330" width="80" height="50" as="geometry" />
        </mxCell>
        <mxCell id="O2MHETSp67tyu0d_eCPM-145" style="edgeStyle=orthogonalEdgeStyle;curved=1;rounded=0;orthogonalLoop=1;jettySize=auto;html=1;exitX=1;exitY=0.5;exitDx=0;exitDy=0;entryX=0;entryY=0.5;entryDx=0;entryDy=0;fontSize=14;strokeColor=#000000;" edge="1" parent="1" source="O2MHETSp67tyu0d_eCPM-142" target="O2MHETSp67tyu0d_eCPM-143">
          <mxGeometry relative="1" as="geometry" />
        </mxCell>
        <mxCell id="O2MHETSp67tyu0d_eCPM-142" value="&lt;font style=&quot;font-size: 14px;&quot;&gt;read r2 =1&lt;/font&gt;" style="ellipse;whiteSpace=wrap;html=1;" vertex="1" parent="1">
          <mxGeometry x="920" y="1330" width="80" height="50" as="geometry" />
        </mxCell>
        <mxCell id="O2MHETSp67tyu0d_eCPM-143" value="&lt;font style=&quot;font-size: 14px;&quot;&gt;write y =1&lt;/font&gt;" style="ellipse;whiteSpace=wrap;html=1;" vertex="1" parent="1">
          <mxGeometry x="1020" y="1330" width="80" height="50" as="geometry" />
        </mxCell>
        <mxCell id="O2MHETSp67tyu0d_eCPM-152" style="edgeStyle=none;rounded=0;orthogonalLoop=1;jettySize=auto;html=1;exitX=1;exitY=0.5;exitDx=0;exitDy=0;entryX=0;entryY=0.5;entryDx=0;entryDy=0;fontSize=14;strokeColor=#000000;" edge="1" parent="1" source="O2MHETSp67tyu0d_eCPM-147" target="O2MHETSp67tyu0d_eCPM-148">
          <mxGeometry relative="1" as="geometry" />
        </mxCell>
        <mxCell id="O2MHETSp67tyu0d_eCPM-147" value="&lt;font style=&quot;font-size: 14px;&quot;&gt;read w =1&lt;/font&gt;" style="ellipse;whiteSpace=wrap;html=1;" vertex="1" parent="1">
          <mxGeometry x="260" y="1460" width="80" height="50" as="geometry" />
        </mxCell>
        <mxCell id="O2MHETSp67tyu0d_eCPM-153" style="edgeStyle=none;rounded=0;orthogonalLoop=1;jettySize=auto;html=1;exitX=1;exitY=0.5;exitDx=0;exitDy=0;entryX=0;entryY=0.5;entryDx=0;entryDy=0;fontSize=14;strokeColor=#000000;" edge="1" parent="1" source="O2MHETSp67tyu0d_eCPM-148" target="O2MHETSp67tyu0d_eCPM-149">
          <mxGeometry relative="1" as="geometry" />
        </mxCell>
        <mxCell id="O2MHETSp67tyu0d_eCPM-148" value="&lt;font style=&quot;font-size: 14px;&quot;&gt;write r4 =1&lt;/font&gt;" style="ellipse;whiteSpace=wrap;html=1;" vertex="1" parent="1">
          <mxGeometry x="360" y="1460" width="80" height="50" as="geometry" />
        </mxCell>
        <mxCell id="O2MHETSp67tyu0d_eCPM-154" style="edgeStyle=none;rounded=0;orthogonalLoop=1;jettySize=auto;html=1;exitX=1;exitY=0.5;exitDx=0;exitDy=0;entryX=0;entryY=0.5;entryDx=0;entryDy=0;fontSize=14;strokeColor=#000000;" edge="1" parent="1" source="O2MHETSp67tyu0d_eCPM-149" target="O2MHETSp67tyu0d_eCPM-150">
          <mxGeometry relative="1" as="geometry" />
        </mxCell>
        <mxCell id="O2MHETSp67tyu0d_eCPM-149" value="&lt;font style=&quot;font-size: 14px;&quot;&gt;read y =1&lt;/font&gt;" style="ellipse;whiteSpace=wrap;html=1;" vertex="1" parent="1">
          <mxGeometry x="480" y="1460" width="80" height="50" as="geometry" />
        </mxCell>
        <mxCell id="O2MHETSp67tyu0d_eCPM-158" style="edgeStyle=none;rounded=0;orthogonalLoop=1;jettySize=auto;html=1;exitX=1;exitY=0.5;exitDx=0;exitDy=0;entryX=0;entryY=0.5;entryDx=0;entryDy=0;fontSize=14;strokeColor=#000000;" edge="1" parent="1" source="O2MHETSp67tyu0d_eCPM-150" target="O2MHETSp67tyu0d_eCPM-155">
          <mxGeometry relative="1" as="geometry" />
        </mxCell>
        <mxCell id="O2MHETSp67tyu0d_eCPM-150" value="&lt;font style=&quot;font-size: 14px;&quot;&gt;write r3 = 1&lt;/font&gt;" style="ellipse;whiteSpace=wrap;html=1;" vertex="1" parent="1">
          <mxGeometry x="580" y="1460" width="80" height="50" as="geometry" />
        </mxCell>
        <mxCell id="O2MHETSp67tyu0d_eCPM-159" style="edgeStyle=none;rounded=0;orthogonalLoop=1;jettySize=auto;html=1;exitX=1;exitY=0.5;exitDx=0;exitDy=0;entryX=0;entryY=0.5;entryDx=0;entryDy=0;fontSize=14;strokeColor=#000000;" edge="1" parent="1" source="O2MHETSp67tyu0d_eCPM-155" target="O2MHETSp67tyu0d_eCPM-156">
          <mxGeometry relative="1" as="geometry" />
        </mxCell>
        <mxCell id="O2MHETSp67tyu0d_eCPM-155" value="&lt;font style=&quot;font-size: 14px;&quot;&gt;read r3 = 1&lt;/font&gt;" style="ellipse;whiteSpace=wrap;html=1;" vertex="1" parent="1">
          <mxGeometry x="700" y="1460" width="80" height="50" as="geometry" />
        </mxCell>
        <mxCell id="O2MHETSp67tyu0d_eCPM-160" style="edgeStyle=none;rounded=0;orthogonalLoop=1;jettySize=auto;html=1;exitX=1;exitY=0.5;exitDx=0;exitDy=0;entryX=0;entryY=0.5;entryDx=0;entryDy=0;fontSize=14;strokeColor=#000000;" edge="1" parent="1" source="O2MHETSp67tyu0d_eCPM-156" target="O2MHETSp67tyu0d_eCPM-157">
          <mxGeometry relative="1" as="geometry" />
        </mxCell>
        <mxCell id="O2MHETSp67tyu0d_eCPM-156" value="&lt;font style=&quot;font-size: 14px;&quot;&gt;write z = 1&lt;/font&gt;" style="ellipse;whiteSpace=wrap;html=1;" vertex="1" parent="1">
          <mxGeometry x="800" y="1460" width="80" height="50" as="geometry" />
        </mxCell>
        <mxCell id="O2MHETSp67tyu0d_eCPM-157" value="&lt;font style=&quot;font-size: 14px;&quot;&gt;write x = 1&lt;/font&gt;" style="ellipse;whiteSpace=wrap;html=1;" vertex="1" parent="1">
          <mxGeometry x="920" y="1460" width="80" height="50" as="geometry" />
        </mxCell>
        <mxCell id="O2MHETSp67tyu0d_eCPM-161" value="" style="fontSize=12;html=1;endFill=0;startFill=0;endSize=6;startSize=6;dashed=1;dashPattern=1 4;endArrow=openThin;startArrow=none;rounded=0;strokeColor=#FF0000;exitX=0.5;exitY=0;exitDx=0;exitDy=0;entryX=0.5;entryY=1;entryDx=0;entryDy=0;" edge="1" parent="1" source="O2MHETSp67tyu0d_eCPM-156" target="O2MHETSp67tyu0d_eCPM-131">
          <mxGeometry width="160" relative="1" as="geometry">
            <mxPoint x="105.00000000000011" y="1300" as="sourcePoint" />
            <mxPoint x="145.0000000000001" y="1300" as="targetPoint" />
          </mxGeometry>
        </mxCell>
        <mxCell id="O2MHETSp67tyu0d_eCPM-162" value="" style="fontSize=12;html=1;endFill=0;startFill=0;endSize=6;startSize=6;dashed=1;dashPattern=1 4;endArrow=openThin;startArrow=none;rounded=0;strokeColor=#FF0000;exitX=0.5;exitY=1;exitDx=0;exitDy=0;entryX=0.5;entryY=0;entryDx=0;entryDy=0;" edge="1" parent="1" source="O2MHETSp67tyu0d_eCPM-136" target="O2MHETSp67tyu0d_eCPM-147">
          <mxGeometry width="160" relative="1" as="geometry">
            <mxPoint x="850" y="1470" as="sourcePoint" />
            <mxPoint x="310" y="1390" as="targetPoint" />
          </mxGeometry>
        </mxCell>
        <mxCell id="O2MHETSp67tyu0d_eCPM-163" value="" style="fontSize=12;html=1;endFill=0;startFill=0;endSize=6;startSize=6;dashed=1;dashPattern=1 4;endArrow=openThin;startArrow=none;rounded=0;strokeColor=#FF0000;exitX=0;exitY=0;exitDx=0;exitDy=0;entryX=1;entryY=1;entryDx=0;entryDy=0;" edge="1" parent="1" source="O2MHETSp67tyu0d_eCPM-157" target="O2MHETSp67tyu0d_eCPM-138">
          <mxGeometry width="160" relative="1" as="geometry">
            <mxPoint x="860" y="1480" as="sourcePoint" />
            <mxPoint x="320" y="1400" as="targetPoint" />
          </mxGeometry>
        </mxCell>
        <mxCell id="O2MHETSp67tyu0d_eCPM-164" value="" style="fontSize=12;html=1;endFill=0;startFill=0;endSize=6;startSize=6;dashed=1;dashPattern=1 4;endArrow=openThin;startArrow=none;rounded=0;strokeColor=#FF0000;exitX=0.5;exitY=1;exitDx=0;exitDy=0;entryX=0.5;entryY=0;entryDx=0;entryDy=0;" edge="1" parent="1" source="O2MHETSp67tyu0d_eCPM-143" target="O2MHETSp67tyu0d_eCPM-149">
          <mxGeometry width="160" relative="1" as="geometry">
            <mxPoint x="941.3088247656308" y="1477.5803578934187" as="sourcePoint" />
            <mxPoint x="778.6911752343694" y="1382.4196421065813" as="targetPoint" />
          </mxGeometry>
        </mxCell>
        <mxCell id="O2MHETSp67tyu0d_eCPM-165" value="" style="fontSize=12;html=1;endFill=0;startFill=0;endSize=6;startSize=6;dashed=1;dashPattern=1 4;endArrow=openThin;startArrow=none;rounded=0;strokeColor=#FF0000;exitX=1;exitY=0;exitDx=0;exitDy=0;entryX=0;entryY=0;entryDx=0;entryDy=0;edgeStyle=orthogonalEdgeStyle;curved=1;" edge="1" parent="1" source="O2MHETSp67tyu0d_eCPM-139" target="O2MHETSp67tyu0d_eCPM-142">
          <mxGeometry width="160" relative="1" as="geometry">
            <mxPoint x="1070.0000000000002" y="1390" as="sourcePoint" />
            <mxPoint x="530" y="1470" as="targetPoint" />
            <Array as="points">
              <mxPoint x="869" y="1320" />
              <mxPoint x="931" y="1320" />
            </Array>
          </mxGeometry>
        </mxCell>
        <mxCell id="O2MHETSp67tyu0d_eCPM-166" value="" style="fontSize=12;html=1;endFill=0;startFill=0;endSize=6;startSize=6;dashed=1;dashPattern=1 4;endArrow=openThin;startArrow=none;rounded=0;strokeColor=#FF0000;exitX=1;exitY=1;exitDx=0;exitDy=0;entryX=0;entryY=1;entryDx=0;entryDy=0;edgeStyle=orthogonalEdgeStyle;curved=1;" edge="1" parent="1" source="O2MHETSp67tyu0d_eCPM-150" target="O2MHETSp67tyu0d_eCPM-155">
          <mxGeometry width="160" relative="1" as="geometry">
            <mxPoint x="850" y="1470" as="sourcePoint" />
            <mxPoint x="310" y="1390" as="targetPoint" />
            <Array as="points">
              <mxPoint x="649" y="1520" />
              <mxPoint x="711" y="1520" />
            </Array>
          </mxGeometry>
        </mxCell>
        <mxCell id="O2MHETSp67tyu0d_eCPM-167" value="" style="fontSize=12;html=1;endFill=0;startFill=0;endSize=6;startSize=6;dashed=1;dashPattern=1 4;endArrow=openThin;startArrow=none;rounded=0;strokeColor=#FF0000;exitX=1;exitY=0;exitDx=0;exitDy=0;entryX=0;entryY=0;entryDx=0;entryDy=0;edgeStyle=orthogonalEdgeStyle;curved=1;" edge="1" parent="1" source="O2MHETSp67tyu0d_eCPM-132" target="O2MHETSp67tyu0d_eCPM-134">
          <mxGeometry width="160" relative="1" as="geometry">
            <mxPoint x="630" y="1390" as="sourcePoint" />
            <mxPoint x="310" y="1470" as="targetPoint" />
            <Array as="points">
              <mxPoint x="429" y="1320" />
              <mxPoint x="491" y="1320" />
            </Array>
          </mxGeometry>
        </mxCell>
      </root>
    </mxGraphModel>
  </diagram>
</mxfile>
